<?xml version="1.0" encoding="UTF-8" standalone="no"?>
<!-- Created with Inkscape (http://www.inkscape.org/) -->

<svg
   xmlns:dc="http://purl.org/dc/elements/1.1/"
   xmlns:cc="http://creativecommons.org/ns#"
   xmlns:rdf="http://www.w3.org/1999/02/22-rdf-syntax-ns#"
   xmlns:svg="http://www.w3.org/2000/svg"
   xmlns="http://www.w3.org/2000/svg"
   xmlns:sodipodi="http://sodipodi.sourceforge.net/DTD/sodipodi-0.dtd"
   xmlns:inkscape="http://www.inkscape.org/namespaces/inkscape"
   width="210mm"
   height="297mm"
   viewBox="0 0 210 297"
   version="1.1"
   id="svg8"
   inkscape:version="0.92.4 (5da689c313, 2019-01-14)"
   sodipodi:docname="Golf Logo.svg">
  <defs
     id="defs2" />
  <sodipodi:namedview
     id="base"
     pagecolor="#ffffff"
     bordercolor="#666666"
     borderopacity="1.0"
     inkscape:pageopacity="0.0"
     inkscape:pageshadow="2"
     inkscape:zoom="0.98994949"
     inkscape:cx="312.48475"
     inkscape:cy="665.24936"
     inkscape:document-units="mm"
     inkscape:current-layer="layer1"
     showgrid="false"
     showguides="false"
     inkscape:guide-bbox="true"
     inkscape:snap-bbox="true"
     inkscape:bbox-paths="true"
     inkscape:bbox-nodes="true"
     inkscape:snap-bbox-edge-midpoints="true"
     inkscape:snap-bbox-midpoints="true"
     inkscape:object-paths="true"
     inkscape:snap-intersection-paths="true"
     inkscape:snap-global="true"
     inkscape:snap-smooth-nodes="true"
     inkscape:window-width="1920"
     inkscape:window-height="1017"
     inkscape:window-x="-8"
     inkscape:window-y="-8"
     inkscape:window-maximized="1">
    <sodipodi:guide
       position="82.586287,171.0525"
       orientation="0,1"
       id="guide821"
       inkscape:locked="false" />
    <sodipodi:guide
       position="89.663391,142.34169"
       orientation="1,0"
       id="guide849"
       inkscape:locked="false" />
    <sodipodi:guide
       position="72.949408,148.26117"
       orientation="1,0"
       id="guide895"
       inkscape:locked="false" />
    <sodipodi:guide
       position="60.670181,179.33786"
       orientation="1,0"
       id="guide1513"
       inkscape:locked="false" />
  </sodipodi:namedview>
  <metadata
     id="metadata5">
    <rdf:RDF>
      <cc:Work
         rdf:about="">
        <dc:format>image/svg+xml</dc:format>
        <dc:type
           rdf:resource="http://purl.org/dc/dcmitype/StillImage" />
        <dc:title></dc:title>
      </cc:Work>
    </rdf:RDF>
  </metadata>
  <g
     inkscape:label="Layer 1"
     inkscape:groupmode="layer"
     id="layer1">
    <path
       style="fill:#000000;fill-opacity:1;stroke:none;stroke-width:4.35243416;stroke-miterlimit:4;stroke-dasharray:none;stroke-opacity:1"
       d="m 323.28906,519.95898 -3.39844,3.09766 c 0.0351,7.58959 -0.0273,10.15625 -0.0273,10.15625 0,0 12.93165,5.22953 15.55274,30.84766 1.14711,0.9598 5.7913,0.9598 6.9375,0 2.62108,-25.61817 15.55273,-30.84766 15.55273,-30.84766 0,0 -0.0625,-2.56666 -0.0273,-10.15625 l -3.39844,-3.09766 c -4.80971,2.46717 -10.15258,3.77357 -15.5957,3.77735 -5.44313,-0.004 -10.786,-1.31015 -15.59571,-3.77735 z"
       transform="scale(0.26458333)"
       id="rect892"
       inkscape:connector-curvature="0"
       sodipodi:nodetypes="ccccccccccc" />
    <path
       style="fill:#000000;fill-opacity:1;stroke:none;stroke-width:2.52661395;stroke-miterlimit:4;stroke-dasharray:none;stroke-opacity:1"
       d="M 322.17188 398.6582 L 326.09375 430.03906 A 47.729713 47.729713 0 0 1 338.88477 428.29297 A 47.729713 47.729713 0 0 1 351.66797 430.08594 L 352.7207 421.66797 L 355.5957 398.6582 L 345.15039 413.2832 L 338.88281 402.83789 L 332.61719 413.2832 L 322.17188 398.6582 z "
       transform="scale(0.26458333)"
       id="rect1486" />
    <g
       id="g853"
       transform="translate(7.0771023,-1.6874108e-6)">
      <path
         style="color:#000000;font-style:normal;font-variant:normal;font-weight:normal;font-stretch:normal;font-size:medium;line-height:normal;font-family:sans-serif;font-variant-ligatures:normal;font-variant-position:normal;font-variant-caps:normal;font-variant-numeric:normal;font-variant-alternates:normal;font-feature-settings:normal;text-indent:0;text-align:start;text-decoration:none;text-decoration-line:none;text-decoration-style:solid;text-decoration-color:#000000;letter-spacing:normal;word-spacing:normal;text-transform:none;writing-mode:lr-tb;direction:ltr;text-orientation:mixed;dominant-baseline:auto;baseline-shift:baseline;text-anchor:start;white-space:normal;shape-padding:0;clip-rule:nonzero;display:inline;overflow:visible;visibility:visible;opacity:1;isolation:auto;mix-blend-mode:normal;color-interpolation:sRGB;color-interpolation-filters:linearRGB;solid-color:#000000;solid-opacity:1;vector-effect:none;fill:#000000;fill-opacity:1;fill-rule:nonzero;stroke:none;stroke-width:3.02362204;stroke-linecap:butt;stroke-linejoin:miter;stroke-miterlimit:4;stroke-dasharray:none;stroke-dashoffset:0;stroke-opacity:1;color-rendering:auto;image-rendering:auto;shape-rendering:auto;text-rendering:auto;enable-background:accumulate"
         d="M 338.88477 432.08398 C 314.63626 432.08398 294.94727 451.77298 294.94727 476.02148 C 294.94727 500.26995 314.63626 519.95898 338.88477 519.95898 C 363.13327 519.95898 382.82031 500.26995 382.82031 476.02148 C 382.82031 451.77298 363.13327 432.08398 338.88477 432.08398 z M 338.88477 435.11133 C 361.49918 435.11133 379.80078 453.40706 379.80078 476.02148 C 379.80078 498.63587 361.49918 516.93945 338.88477 516.93945 C 316.27035 516.93945 297.97266 498.63587 297.97266 476.02148 C 297.97266 453.40706 316.27035 435.11133 338.88477 435.11133 z M 365.20898 447.62109 A 40.795274 40.795274 0 0 1 372.86133 471.31641 A 40.795274 40.795274 0 0 1 332.06445 512.11328 A 40.795274 40.795274 0 0 1 321.67969 510.7168 A 38.773578 38.773578 0 0 0 338.88477 514.79492 A 38.773578 38.773578 0 0 0 377.6582 476.02148 A 38.773578 38.773578 0 0 0 365.20898 447.62109 z "
         transform="matrix(0.26458333,0,0,0.26458333,-7.0771023,1.6874108e-6)"
         id="path815" />
    </g>
    <g
       transform="matrix(1.0948357,0,0,1.0948357,-0.75502538,-11.94432)"
       id="g912" />
    <ellipse
       style="fill:#000000;fill-opacity:1;stroke:none;stroke-width:0.61512595;stroke-miterlimit:4;stroke-dasharray:none;stroke-opacity:1"
       id="path1489"
       cx="89.663002"
       cy="105.5668"
       rx="1.017203"
       ry="1.017198" />
  </g>
</svg>
